<?xml version="1.0" standalone="no"?>
<!DOCTYPE svg PUBLIC "-//W3C//DTD SVG 20010904//EN"
 "http://www.w3.org/TR/2001/REC-SVG-20010904/DTD/svg10.dtd">
<svg version="1.0" xmlns="http://www.w3.org/2000/svg"
 width="259.000000pt" height="194.000000pt" viewBox="0 0 259.000000 194.000000"
 preserveAspectRatio="xMidYMid meet">

<g transform="translate(0.000000,194.000000) scale(0.110000,-0.110000)"
fill="#ffffff" stroke="none">
<path d="M750 1741 c-53 -4 -86 -13 -112 -29 -59 -37 -125 -120 -169 -211 -33
-69 -55 -99 -128 -170 -48 -47 -96 -104 -105 -125 -18 -39 -18 -39 14 -150 31
-104 37 -115 91 -171 36 -38 69 -86 90 -130 18 -38 41 -77 51 -86 10 -9 18
-21 18 -26 0 -5 11 -15 24 -21 13 -6 41 -31 62 -56 21 -25 42 -46 47 -46 4 0
49 -24 100 -53 51 -29 115 -61 142 -71 28 -11 113 -50 190 -89 83 -41 160 -72
190 -77 27 -4 79 -15 115 -23 36 -8 108 -25 160 -37 81 -19 115 -21 232 -17
127 5 140 7 202 37 49 23 77 45 107 83 l41 51 -7 120 c-4 67 -8 198 -8 291
l-2 170 30 50 c16 28 30 52 30 55 1 3 9 19 18 37 12 23 17 56 17 119 0 102
-20 148 -83 189 -43 29 -67 76 -67 130 0 48 -48 99 -142 152 -81 46 -197 74
-394 94 -125 13 -642 20 -754 10z m595 -41 c39 -5 115 -11 169 -14 55 -3 105
-11 110 -17 13 -14 -232 -5 -338 12 -106 17 -257 7 -342 -23 -74 -26 -259
-130 -281 -158 -25 -30 -12 -29 31 3 70 55 194 118 285 147 74 23 100 27 186
24 93 -2 182 -11 230 -22 52 -11 230 -13 251 -2 17 10 30 10 58 0 19 -6 40 -9
45 -6 5 4 12 2 16 -3 3 -5 13 -9 23 -9 23 2 167 -87 192 -119 11 -14 20 -41
20 -60 0 -51 23 -96 69 -132 23 -18 48 -46 56 -62 21 -39 20 -169 -1 -195 -15
-19 -16 -19 -9 1 4 11 9 44 12 72 6 62 -16 119 -50 132 -12 5 -31 18 -41 30
-17 18 -31 22 -80 21 -34 0 -73 2 -88 6 -18 4 -28 2 -28 -5 0 -12 32 -15 115
-11 41 1 54 -3 70 -20 11 -12 32 -28 46 -35 39 -21 54 -77 37 -145 -12 -52
-15 -56 -65 -79 -29 -14 -53 -31 -53 -38 0 -12 4 -12 28 0 15 7 42 21 60 30
19 9 32 14 30 10 -2 -5 -14 -30 -28 -58 -24 -48 -25 -56 -24 -250 0 -110 4
-238 8 -285 8 -83 7 -86 -22 -131 -16 -26 -44 -53 -61 -60 -17 -8 -31 -17 -31
-20 0 -4 -32 -15 -71 -24 -108 -27 -256 -16 -434 30 -77 21 -160 40 -185 44
-25 4 -108 39 -185 78 -77 38 -162 78 -190 89 -53 19 -200 101 -244 135 -77
60 -136 128 -164 189 -16 36 -43 80 -60 99 -31 32 -31 33 -7 26 21 -6 23 -5
12 6 -7 8 -16 14 -20 15 -54 5 -118 94 -128 176 -8 68 9 109 74 176 l44 47
-37 -48 -37 -48 4 -98 c5 -126 24 -157 116 -185 42 -14 22 10 -27 31 -42 18
-51 26 -60 59 -6 22 -11 72 -11 111 0 63 4 78 28 112 34 51 39 53 142 61 l85
7 -85 3 -85 3 65 7 65 7 -64 1 -64 2 21 23 c11 12 36 56 55 97 41 90 102 170
159 208 32 20 58 28 112 33 113 9 494 9 571 -1z"/>
<path d="M1036 1619 c-119 -20 -224 -71 -296 -144 -57 -58 -42 -59 20 -1 116
108 343 160 539 122 94 -18 232 -20 369 -6 69 7 97 7 112 -2 26 -17 38 -2 14
17 -14 12 -33 14 -69 10 -146 -16 -332 -17 -414 -1 -88 17 -194 19 -275 5z"/>
<path d="M970 1556 c-31 -6 -76 -23 -100 -38 -50 -29 -117 -94 -107 -104 3 -3
20 10 37 30 18 20 38 36 46 36 8 0 14 3 14 8 0 25 154 62 259 62 59 -1 68 -3
85 -26 10 -14 20 -43 23 -65 7 -48 23 -52 23 -5 0 23 -9 45 -27 67 -25 30 -26
31 -5 25 25 -8 31 9 6 18 -26 10 -195 5 -254 -8z"/>
<path d="M1590 1544 c-14 -3 -44 -7 -67 -10 -27 -3 -43 -10 -43 -19 0 -10 7
-12 28 -5 16 4 65 11 109 15 74 6 84 5 131 -19 39 -20 52 -32 57 -56 9 -43 30
-53 22 -10 -9 43 -21 57 -79 86 -45 23 -90 28 -158 18z"/>
<path d="M1510 1471 c-5 -11 -9 -41 -9 -68 l2 -48 6 47 c4 27 12 53 19 60 14
14 16 28 2 28 -5 0 -14 -9 -20 -19z"/>
<path d="M990 1429 c-99 -10 -112 -13 -130 -24 -8 -6 -24 -14 -34 -20 -30 -16
-58 -59 -50 -78 9 -25 46 -31 105 -17 79 19 172 8 251 -30 l67 -32 35 21 c37
24 52 52 39 75 -15 27 -104 88 -135 93 -17 3 -41 8 -52 12 -12 4 -55 4 -96 0z
m196 -94 c26 -20 33 -30 25 -38 -8 -8 -20 -8 -44 2 -17 8 -51 19 -75 25 -29 7
-41 15 -37 24 3 8 5 20 5 27 0 20 81 -6 126 -40z m-310 6 c-3 -5 -15 -11 -26
-14 -17 -4 -19 -3 -9 9 12 15 44 20 35 5z"/>
<path d="M1576 1365 c-21 -7 -50 -25 -65 -39 -22 -21 -33 -24 -64 -19 -30 5
-37 3 -37 -11 0 -9 16 -24 35 -33 33 -16 35 -20 35 -65 0 -51 18 -80 58 -92
33 -11 35 -36 6 -73 -34 -44 -64 -59 -93 -44 -18 10 -22 9 -28 -5 -10 -27 11
-49 52 -52 34 -3 42 2 87 48 39 40 52 49 63 40 10 -8 15 -7 22 4 7 13 14 13
43 3 19 -7 46 -18 58 -26 13 -7 26 -10 28 -8 8 7 -52 47 -71 47 -9 0 -28 13
-43 28 -26 27 -56 49 -111 83 -20 12 -27 25 -29 56 -3 39 -1 41 35 56 22 8 81
18 133 22 134 11 162 31 101 74 -23 17 -44 21 -103 21 -40 -1 -90 -7 -112 -15z
m147 -32 c-13 -2 -33 -2 -45 0 -13 2 -3 4 22 4 25 0 35 -2 23 -4z"/>
<path d="M688 1333 c-47 -7 -26 -34 25 -32 21 0 21 1 2 8 -18 8 -16 10 15 19
27 8 29 10 10 10 -14 -1 -37 -3 -52 -5z"/>
<path d="M720 1280 c0 -13 11 -13 30 0 12 8 11 10 -7 10 -13 0 -23 -4 -23 -10z"/>
<path d="M474 1261 c-52 -32 -78 -77 -82 -146 -3 -65 20 -130 48 -130 18 0 17
31 -1 92 -11 37 -10 47 6 84 11 23 33 50 50 60 33 21 114 26 131 9 6 -6 41
-22 79 -35 119 -43 220 -30 284 38 23 25 22 47 -3 47 -8 0 -19 -7 -27 -16 -45
-54 -140 -67 -224 -30 -22 10 -55 24 -73 32 -48 21 -150 18 -188 -5z"/>
<path d="M1980 1262 c0 -4 15 -14 33 -22 28 -13 33 -21 40 -70 7 -53 7 -56
-23 -82 -16 -15 -30 -30 -30 -33 0 -14 29 -2 49 19 21 22 22 30 16 90 -4 36
-13 70 -19 75 -17 15 -66 32 -66 23z"/>
<path d="M1821 1200 c-41 -30 -42 -30 -77 -14 -38 18 -62 9 -51 -20 9 -22 49
-36 103 -36 38 0 46 4 53 24 15 39 81 50 126 20 25 -17 45 -12 45 10 0 25 -47
46 -103 46 -44 0 -62 -5 -96 -30z"/>
<path d="M577 1203 c-3 -4 -8 -23 -12 -41 -7 -32 -26 -47 -88 -66 -11 -4 -17
-13 -15 -23 3 -14 13 -18 47 -18 35 0 45 -4 51 -20 4 -11 5 -26 2 -34 -3 -8 1
-19 9 -25 8 -6 36 -45 63 -86 65 -99 131 -167 223 -231 68 -47 223 -122 241
-116 4 1 21 -4 37 -10 42 -16 205 -33 324 -33 118 0 301 18 317 31 7 6 26 11
43 14 46 5 96 49 122 108 18 42 24 75 27 167 5 123 -11 245 -33 258 -7 4 -15
21 -17 37 -2 19 -9 30 -18 30 -11 0 -17 -15 -22 -53 -7 -64 -28 -89 -112 -136
-100 -54 -231 -67 -411 -40 -22 3 -47 6 -55 6 -8 1 -21 5 -27 10 -7 6 -19 8
-28 5 -8 -4 -17 -2 -20 3 -3 5 -12 7 -19 4 -8 -3 -17 0 -21 5 -3 6 -11 9 -16
5 -5 -3 -16 -1 -23 5 -7 6 -53 22 -102 36 -235 66 -430 150 -436 188 -3 21
-23 34 -31 20z m123 -134 l78 -42 4 -46 c3 -25 4 -47 2 -49 -1 -2 -38 16 -82
40 -65 35 -84 50 -98 80 -16 36 -13 58 8 58 6 0 46 -19 88 -41z m259 -104 c62
-18 115 -35 116 -37 5 -4 -11 -78 -18 -84 -3 -3 -33 6 -68 20 -34 15 -70 26
-80 26 -22 0 -79 65 -79 90 0 11 3 20 8 20 4 0 58 -16 121 -35z m925 -50 c16
-49 13 -70 -10 -79 -10 -4 -14 3 -14 28 0 18 -3 48 -6 65 -10 48 12 38 30 -14z
m-1106 -44 c14 -18 12 -76 -3 -76 -9 0 -75 81 -96 117 -8 15 -3 14 38 -4 27
-11 54 -28 61 -37z m1038 24 c9 -37 -9 -78 -38 -86 -22 -6 -26 -3 -26 15 0 11
-3 31 -7 43 -5 17 -1 25 22 37 38 21 42 20 49 -9z m-563 -7 c37 -7 68 -17 68
-23 8 -67 6 -70 -41 -72 -25 -2 -74 5 -110 15 -69 19 -68 18 -54 81 4 20 9 22
37 17 18 -4 62 -12 100 -18z m453 -85 c-1 -2 -37 -6 -79 -9 l-76 -7 -3 34 -3
34 70 10 70 10 12 -35 c7 -19 11 -36 9 -37z m-209 52 c2 -1 6 -16 9 -33 l7
-32 -72 0 -71 0 0 40 0 41 63 -7 c34 -4 63 -8 64 -9z m-492 -74 c39 -9 43 -40
12 -104 l-24 -48 -92 61 c-85 58 -91 63 -77 79 9 10 16 32 16 49 l0 31 68 -31
c37 -17 81 -34 97 -37z m228 -72 l48 -12 -2 -69 -2 -69 -51 6 c-28 4 -82 16
-119 26 -73 22 -77 29 -41 86 8 12 14 36 14 53 l0 30 53 -20 c28 -10 74 -24
100 -31z m673 -24 c-21 -49 -35 -73 -36 -57 0 15 38 92 45 92 3 0 -1 -16 -9
-35z m-478 -12 l63 -6 -6 -28 c-18 -98 -10 -89 -75 -89 -85 0 -86 0 -82 76 3
56 6 65 20 59 10 -4 45 -9 80 -12z m402 -17 c-15 -40 -13 -49 10 -43 11 3 18
1 15 -4 -6 -9 -77 -31 -83 -25 -5 6 39 90 52 98 16 10 18 4 6 -26z m-80 9 c0
-3 -9 -24 -20 -45 -11 -22 -17 -40 -13 -41 5 0 -5 -5 -21 -10 -17 -4 -32 -7
-34 -4 -2 2 2 23 10 47 10 30 22 44 39 49 33 9 39 10 39 4z m-120 -31 c-27
-71 -41 -84 -86 -84 l-31 0 8 46 c5 25 11 50 14 55 4 5 28 9 55 9 49 0 49 0
40 -26z"/>
<path d="M1096 1119 c11 -19 -18 -29 -88 -29 -53 0 -68 -3 -68 -15 0 -8 6 -13
13 -10 6 2 40 6 75 9 35 3 67 8 72 11 13 8 13 45 -1 45 -5 0 -7 -5 -3 -11z"/>
<path d="M1142 1114 c-17 -12 -22 -25 -22 -57 1 -47 16 -73 45 -79 25 -4 34
39 11 48 -38 15 -1 69 42 62 28 -4 45 11 31 28 -15 19 -79 18 -107 -2z"/>
<path d="M1223 1049 c-17 -17 -16 -34 1 -48 11 -9 16 -9 21 0 5 7 24 9 55 5
36 -5 50 -3 60 9 20 24 -2 38 -67 43 -39 2 -62 -1 -70 -9z"/>
<path d="M670 600 c14 -11 28 -20 31 -20 4 0 31 -15 61 -33 222 -133 584 -216
952 -217 l130 0 68 40 c68 41 68 41 66 83 -1 36 -2 37 -5 10 -4 -30 -17 -44
-78 -80 -67 -39 -79 -42 -205 -39 -69 2 -143 6 -165 10 -22 3 -69 8 -105 10
-36 3 -67 6 -70 7 -3 1 -9 2 -15 3 -5 1 -17 5 -25 8 -22 9 -126 29 -136 27 -5
-1 -22 3 -37 9 -16 7 -35 12 -42 12 -13 0 -99 30 -180 63 -16 7 -81 38 -143
70 -120 60 -142 69 -102 37z"/>
<path d="M780 603 c19 -8 43 -22 53 -30 9 -9 17 -12 17 -8 0 4 8 1 18 -7 27
-23 136 -71 257 -113 108 -37 114 -38 329 -48 274 -13 330 -5 408 62 15 13 28
31 28 40 0 10 -10 5 -32 -16 -77 -73 -151 -83 -463 -64 -150 9 -167 12 -275
51 -63 22 -165 65 -227 95 -61 30 -120 55 -130 54 -11 0 -5 -6 17 -16z"/>
<path d="M1320 460 c0 -6 62 -10 165 -10 103 0 165 4 165 10 0 6 -62 10 -165
10 -103 0 -165 -4 -165 -10z"/>
</g>
</svg>
